HIERARCHY
ROOT Hips
{
	OFFSET 0.00000 0.00000 0.00000
	CHANNELS 6 Xposition Yposition Zposition Zrotation Yrotation Xrotation 
	JOINT LHipJoint
	{
		OFFSET 0 0 0
		CHANNELS 3 Zrotation Yrotation Xrotation
		JOINT LeftHip
		{
			OFFSET 1.57358 -1.76629 0.73362
			CHANNELS 3 Zrotation Yrotation Xrotation
			JOINT LeftKnee
			{
				OFFSET 2.40600 -6.61045 0.00000
				CHANNELS 3 Zrotation Yrotation Xrotation
				JOINT LeftAnkle
				{
					OFFSET 2.66168 -7.31291 0.00000
					CHANNELS 3 Zrotation Yrotation Xrotation
					JOINT LeftToe
					{
						OFFSET 0.20870 -0.57341 2.12506
						CHANNELS 3 Zrotation Yrotation Xrotation
						End Site
						{
							OFFSET 0.00000 -0.00000 1.10557
						}
					}
				}
			}
		}
	}
	JOINT RHipJoint
	{
		OFFSET 0 0 0
		CHANNELS 3 Zrotation Yrotation Xrotation
		JOINT RightHip
		{
			OFFSET -1.49299 -1.76629 0.73362
			CHANNELS 3 Zrotation Yrotation Xrotation
			JOINT RightKnee
			{
				OFFSET -2.43663 -6.69460 0.00000
				CHANNELS 3 Zrotation Yrotation Xrotation
				JOINT RightAnkle
				{
					OFFSET -2.62959 -7.22474 0.00000
					CHANNELS 3 Zrotation Yrotation Xrotation
					JOINT RightToe
					{
						OFFSET -0.25784 -0.70841 2.21862
						CHANNELS 3 Zrotation Yrotation Xrotation
						End Site
						{
							OFFSET -0.00000 -0.00000 1.16452
						}
					}
				}
			}
		}
	}
	JOINT lowerback
	{
		OFFSET 0 0 0
		CHANNELS 3 Zrotation Yrotation Xrotation
		JOINT Chest
		{
			OFFSET -0.00034 2.12399 -0.25450
			CHANNELS 3 Zrotation Yrotation Xrotation
			JOINT Chest2
			{
				OFFSET 0.05594 2.14379 -0.03318
				CHANNELS 3 Zrotation Yrotation Xrotation
				JOINT lowerneck
				{
					OFFSET 0 0 0
					CHANNELS 3 Zrotation Yrotation Xrotation
					JOINT Neck
					{
						OFFSET -0.09835 1.62725 0.24211
						CHANNELS 3 Zrotation Yrotation Xrotation
						JOINT Head
						{
							OFFSET 0.10849 1.66041 -0.22648
							CHANNELS 3 Zrotation Yrotation Xrotation
							End Site
							{
								OFFSET 0.04385 1.68267 -0.10541
							}
						}
					}
				}
				JOINT LeftCollar
				{
					OFFSET 0 0 0
					CHANNELS 3 Zrotation Yrotation Xrotation
					JOINT LeftShoulder
					{
						OFFSET 3.29108 0.79398 -0.68179
CHANNELS 3 Zrotation Xrotation Yrotation
						JOINT LeftElbow
						{
OFFSET 0 -5.153100 -0.000000
CHANNELS 3 Zrotation Xrotation Yrotation
							JOINT LeftWrist
							{
OFFSET 0 -3.751380 -0.000000
CHANNELS 3 Zrotation Xrotation Yrotation
								JOINT lhand
								{
									OFFSET 0 0 0
CHANNELS 3 Zrotation Xrotation Yrotation
									JOINT LFingers
									{
OFFSET 0 -0.529170 0.000000
CHANNELS 3 Zrotation Xrotation Yrotation
										End Site
										{
OFFSET 0 -0.426630 0.000000
										}
									}
								}
								JOINT LThumb
								{
OFFSET 0 0.000000 0.000000
CHANNELS 3 Zrotation Xrotation Yrotation
									End Site
									{
OFFSET 0 -0.433150 0.433150
									}
								}
							}
						}
					}
				}
				JOINT RightCollar
				{
					OFFSET 0 0 0
					CHANNELS 3 Zrotation Yrotation Xrotation
					JOINT RightShoulder
					{
						OFFSET -3.07414 1.06285 -0.44338
CHANNELS 3 Zrotation Xrotation Yrotation
						JOINT RightElbow
						{
OFFSET 0 -5.296130 0.000000
CHANNELS 3 Zrotation Xrotation Yrotation
							JOINT RightWrist
							{
OFFSET 0 -3.761440 -0.000000
CHANNELS 3 Zrotation Xrotation Yrotation
								JOINT rhand
								{
									OFFSET 0 0 0
CHANNELS 3 Zrotation Xrotation Yrotation
									JOINT RFingers
									{
OFFSET 0 -0.747320 0.000000
CHANNELS 3 Zrotation Xrotation Yrotation
										End Site
										{
OFFSET 0 -0.602510 0.000000
										}
									}
								}
								JOINT RThumb
								{
OFFSET 0 0.000000 0.000000
CHANNELS 3 Zrotation Xrotation Yrotation
									End Site
									{
OFFSET 0 -0.611710 0.611710
									}
								}
							}
						}
					}
				}
			}
		}
	}
}
MOTION
Frames: 4
Frame Time: 0.008333333333333333
-7.945428 17.576759 2.940381 -1.597902 27.737783 2.452730 0.000000 0.000000 0.000000 -21.323343 -7.171217 -23.695545 1.436021 7.576614 21.435231 0.043653 1.848253 -5.087440 0.001192 -0.139674 -0.383796 0.000000 0.000000 0.000000 21.454268 -0.998859 3.808479 -3.533237 -11.509792 34.021750 -0.016023 -1.849950 -3.720381 -0.745500 5.508060 -15.365359 0.992106 1.153599 5.393420 1.907930 1.659972 0.228993 1.278679 0.828123 -2.816389 -8.984244 -3.035673 -16.012177 3.752637 -2.685786 25.477267 2.512496 -1.586101 11.083836 0.000000 0.000000 0.000000 -2.648999 5.178489 -3.814091 10.256044 -17.139066 1.549639 14.671395 24.124066 -20.445097 0.000000 0.000000 0.000000 -7.125000 0.000000 0.000000 -13.812991 50.540107 1.917709 0.000000 0.000000 0.000000 -6.202580 2.899713 10.787597 -20.801998 -31.596473 -5.945837 -14.175182 -1.121430 -13.689067 0.000000 0.000000 0.000000 7.125000 0.000000 0.000000 9.056417 15.992727 6.290611
-7.859482 17.570439 3.049988 -1.295152 28.168813 2.463697 0.000000 0.000000 0.000000 -21.850128 -6.959177 -23.265778 1.461741 7.641119 21.629342 0.051879 1.109619 -4.875155 0.000033 -0.019788 -0.054396 0.000000 0.000000 0.000000 20.923269 -1.218971 2.657022 -4.027960 -12.192181 36.422820 0.007066 -1.881498 -1.401121 -0.715433 5.405220 -15.068068 0.794646 1.042926 5.406533 1.884192 1.498514 0.291875 1.377839 0.750061 -2.760709 -9.032591 -3.061215 -16.149723 3.655694 -2.668032 25.385561 2.485321 -1.592532 11.075641 0.000000 0.000000 0.000000 -2.832682 4.755320 -2.318071 10.013000 -16.759735 1.478839 14.622352 25.447864 -20.491974 0.000000 0.000000 0.000000 -7.125000 0.000000 0.000000 -13.877917 50.578439 1.940183 0.000000 0.000000 0.000000 -6.092700 2.937743 10.566504 -20.799649 -31.593765 -5.944666 -13.627690 -0.857751 -13.078145 0.000000 0.000000 0.000000 7.125000 0.000000 0.000000 9.437194 16.650797 6.424913
-7.777857 17.564898 3.155434 -1.240869 28.525433 2.394802 0.000000 0.000000 0.000000 -22.113941 -6.708626 -22.989622 1.493770 7.720537 21.868509 0.049895 0.626696 -4.503029 0.002608 -0.283883 -0.780051 0.000000 0.000000 0.000000 20.634453 -1.283649 1.393172 -4.542825 -12.842660 38.793805 0.000132 -1.951986 0.965554 -0.744845 5.512322 -15.375876 0.889251 1.000681 5.567798 1.835610 1.451328 0.223173 1.274968 0.724777 -2.917530 -8.899028 -3.116169 -16.199965 3.472005 -2.727631 25.372723 2.386072 -1.628571 11.080759 0.000000 0.000000 0.000000 -2.764112 4.805106 -2.337099 10.043215 -16.807090 1.487481 14.399742 25.284865 -20.252265 0.000000 0.000000 0.000000 -7.125000 0.000000 0.000000 -13.996887 50.306569 1.862284 0.000000 0.000000 0.000000 -5.791879 3.304144 10.229280 -20.899559 -31.710831 -5.997129 -13.540961 -0.846105 -12.869987 0.000000 0.000000 0.000000 7.125000 0.000000 0.000000 9.498904 16.867695 6.423609
-7.695765 17.567601 3.259127 -1.216441 28.783459 2.338634 0.000000 0.000000 0.000000 -22.347101 -6.406031 -22.684247 1.513561 7.769261 22.015475 0.046880 0.110104 -4.142637 0.002433 0.012427 0.034189 0.000000 0.000000 0.000000 20.379367 -1.107930 0.069524 -5.087596 -13.473670 41.183605 -0.032813 -2.122351 3.152118 -0.561742 4.755515 -13.221036 0.953067 0.970383 5.640809 1.802351 1.416478 0.170906 1.206009 0.706201 -3.009375 -8.757784 -3.146634 -16.107938 3.371847 -2.791832 25.250491 2.315259 -1.655239 11.017364 0.000000 0.000000 0.000000 -2.635911 5.029952 -3.160768 10.241808 -17.116581 1.545624 14.225259 24.536230 -20.439559 0.000000 0.000000 0.000000 -7.125000 0.000000 0.000000 -14.238372 50.463353 1.952315 0.000000 0.000000 0.000000 -5.436125 3.545547 9.622204 -20.975506 -31.799695 -6.037067 -13.544774 -0.692928 -13.062259 0.000000 0.000000 0.000000 7.125000 0.000000 0.000000 9.493878 16.673068 6.460928
